<svg width="19" height="19" viewBox="0 0 19 19" fill="none" xmlns="http://www.w3.org/2000/svg">
<g clip-path="url(#clip0_8952_449)">
<path d="M18.8409 12.8654C18.0643 14.2072 16.6187 15.0417 15.0694 15.0417H10.6875V16.625H13.0625C13.718 16.625 14.25 17.157 14.25 17.8125C14.25 18.468 13.718 19 13.0625 19H5.9375C5.282 19 4.75 18.468 4.75 17.8125C4.75 17.157 5.282 16.625 5.9375 16.625H8.3125V15.0417H4.35417C1.95383 15.0417 0 13.0878 0 10.6875V4.35417C0 1.95304 1.95383 0 4.35417 0H7.91667C8.57217 0 9.10417 0.531208 9.10417 1.1875C9.10417 1.84379 8.57217 2.375 7.91667 2.375H4.35417C3.26246 2.375 2.375 3.26325 2.375 4.35417V10.6875C2.375 11.7792 3.26246 12.6667 4.35417 12.6667H15.0694C15.774 12.6667 16.431 12.2875 16.7841 11.6763C17.1127 11.1087 17.8394 10.9147 18.407 11.2425C18.9747 11.571 19.1686 12.2977 18.8409 12.8654ZM7.91667 6.33333C7.91667 5.53454 7.32371 4.88142 6.555 4.77217C6.45129 4.76504 6.34758 4.75554 6.2415 4.75871C5.41025 4.807 4.75 5.48942 4.75 6.33254C4.75 7.20733 5.45854 7.91587 6.33333 7.91587C7.20813 7.91587 7.91667 7.20813 7.91667 6.33333ZM3.9995 10.245C3.83879 10.6503 4.17367 11.0833 4.62808 11.0833H8.03937C8.49379 11.0833 8.82867 10.6503 8.66796 10.245C8.3125 9.34642 7.40129 8.70833 6.33413 8.70833C5.26696 8.70833 4.35496 9.34721 3.9995 10.245ZM17.704 0.995917L15.0187 0.106083C14.7765 0.0253333 14.5152 0.0253333 14.2722 0.106083L11.5853 0.995917C10.811 1.254 10.2909 1.97521 10.2909 2.78983V5.54246C10.2909 8.33071 13.1092 9.95679 13.9705 10.3875C13.9705 10.3875 14.3862 10.5854 14.6458 10.5854C15.0425 10.5854 15.2356 10.4397 15.2356 10.4397C16.1183 10.0843 18.9992 8.68379 18.9992 5.54167V2.78904C18.9992 1.97442 18.4783 1.25321 17.7033 0.995917H17.704ZM15.0417 5.14583V7.52083H15.4375C15.656 7.52083 15.8333 7.69817 15.8333 7.91667C15.8333 8.13517 15.656 8.3125 15.4375 8.3125H14.6458C14.4273 8.3125 14.25 8.13517 14.25 7.91667V5.14583C13.2889 5.14583 12.5258 4.28608 12.6888 3.29492C12.8171 2.51671 13.5494 1.97917 14.3387 1.97917H14.953C15.7423 1.97917 16.4746 2.51671 16.6028 3.29492C16.7659 4.28608 16.0028 5.14583 15.0417 5.14583ZM15.8333 3.55142C15.8333 3.98763 15.4779 4.34308 15.0417 4.34308H14.25C13.8138 4.34308 13.4583 3.98763 13.4583 3.55142C13.4583 3.11521 13.8138 2.75975 14.25 2.75975H15.0417C15.4779 2.75975 15.8333 3.11521 15.8333 3.55142Z" fill="#062745"/>
</g>
<defs>
<clipPath id="clip0_8952_449">
<rect width="19" height="19" fill="white"/>
</clipPath>
</defs>
</svg>
