<svg width="683" height="683" viewBox="0 0 683 683" fill="none" xmlns="http://www.w3.org/2000/svg">
<g clip-path="url(#clip0_71_147)">
<path d="M489.865 309.198C489.865 320.245 480.911 329.198 469.865 329.198C458.823 329.198 449.865 320.245 449.865 309.198C449.865 298.156 458.823 289.198 469.865 289.198C480.911 289.198 489.865 298.156 489.865 309.198Z" fill="white"/>
<path d="M469.844 96.4009C429.245 96.4009 396.312 129.255 396.312 169.932V169.958C396.312 181 405.266 189.948 416.313 189.948C427.359 189.948 436.313 180.979 436.313 169.932C436.313 151.443 451.266 136.401 469.87 136.401C488.37 136.401 503.422 151.453 503.422 169.958C503.422 188.458 488.37 203.51 469.87 203.51C458.823 203.51 449.87 212.469 449.87 223.51V244.932C449.87 255.979 458.823 264.932 469.87 264.932C480.911 264.932 489.87 255.979 489.87 244.932V240.75C520.74 232.015 543.422 203.583 543.422 169.958C543.422 129.396 510.427 96.4009 469.844 96.4009Z" fill="white"/>
<path d="M191.917 510.417C216.771 491.063 232.802 460.886 232.802 427.021C232.802 368.745 185.385 321.333 127.109 321.333C68.8333 321.333 21.4219 368.745 21.4219 427.021C21.4219 460.886 37.4531 491.063 62.3021 510.417C27.2292 531.281 0 570.688 0 619.823V662.667C0 673.714 8.95313 682.667 20 682.667H234.224C245.266 682.667 254.224 673.714 254.224 662.667V619.823C254.224 570.698 227 531.287 191.917 510.417ZM61.4219 427.021C61.4219 390.802 90.8906 361.333 127.115 361.333C163.333 361.333 192.802 390.802 192.802 427.021C192.802 463.245 163.333 492.714 127.115 492.714C90.8906 492.714 61.4219 463.245 61.4219 427.021ZM214.224 642.667H40V619.823C40 571.709 78.9271 532.714 127.109 532.714C175.224 532.714 214.219 571.641 214.219 619.823V642.667H214.224Z" fill="white"/>
<path d="M598.401 0H341.333C294.792 0 257.068 37.6563 257.068 84.2656V469.865C257.068 486.224 275.828 495.792 289.068 485.865L369.422 425.599H598.401C644.943 425.599 682.667 387.943 682.667 341.333V84.2656C682.667 37.724 645.01 0 598.401 0ZM642.667 341.333C642.667 365.802 622.88 385.599 598.401 385.599H362.755C358.427 385.599 354.219 387.005 350.755 389.599L297.068 429.865V84.2656C297.068 59.7969 316.854 40 341.333 40H598.401C622.87 40 642.667 59.7865 642.667 84.2656V341.333Z" fill="white"/>
</g>
<defs>
<clipPath id="clip0_71_147">
<rect width="682.667" height="682.667" fill="white"/>
</clipPath>
</defs>
</svg>
