<svg width="19" height="19" viewBox="0 0 19 19" fill="none" xmlns="http://www.w3.org/2000/svg">
<path d="M13.0627 0H5.93766C3.53654 0 1.5835 1.95304 1.5835 4.35417V14.6458C1.5835 17.047 3.53654 19 5.93766 19H13.0627C15.4638 19 17.4168 17.047 17.4168 14.6458V4.35417C17.4168 1.95304 15.4638 0 13.0627 0ZM15.0418 14.6458C15.0418 15.7368 14.1536 16.625 13.0627 16.625H5.93766C4.84675 16.625 3.9585 15.7368 3.9585 14.6458V4.35417C3.9585 3.26325 4.84675 2.375 5.93766 2.375H13.0627C14.1536 2.375 15.0418 3.26325 15.0418 4.35417V14.6458ZM13.4585 5.14583C13.4585 5.80213 12.9273 6.33333 12.271 6.33333H10.6877C9.1265 6.30721 9.12729 3.98446 10.6877 3.95833H12.271C12.9273 3.95833 13.4585 4.48954 13.4585 5.14583ZM13.4585 9.10417C13.4585 9.76046 12.9273 10.2917 12.271 10.2917H10.6877C9.1265 10.2655 9.12729 7.94279 10.6877 7.91667H12.271C12.9273 7.91667 13.4585 8.44788 13.4585 9.10417ZM13.4585 13.0625C13.4585 13.7188 12.9273 14.25 12.271 14.25H10.6877C9.1265 14.2239 9.12729 11.9011 10.6877 11.875H12.271C12.9273 11.875 13.4585 12.4062 13.4585 13.0625ZM7.91683 5.14583C7.88991 6.707 5.56795 6.70621 5.54183 5.14583C5.56875 3.58467 7.8907 3.58546 7.91683 5.14583ZM7.91683 9.10417C7.88991 10.6653 5.56795 10.6645 5.54183 9.10417C5.56875 7.543 7.8907 7.54379 7.91683 9.10417ZM7.91683 13.0625C7.88991 14.6237 5.56795 14.6229 5.54183 13.0625C5.56875 11.5013 7.8907 11.5021 7.91683 13.0625Z" fill="#062745"/>
</svg>
