<svg width="19" height="19" viewBox="0 0 19 19" fill="none" xmlns="http://www.w3.org/2000/svg">
<g clip-path="url(#clip0_8952_455)">
<path d="M10.6875 9.5C10.6875 11.2464 12.1078 12.6667 13.8542 12.6667C15.6006 12.6667 17.0208 11.2464 17.0208 9.5C17.0208 7.75358 15.6006 6.33333 13.8542 6.33333C12.1078 6.33333 10.6875 7.75358 10.6875 9.5ZM13.8542 7.91667C14.7274 7.91667 15.4375 8.62679 15.4375 9.5C15.4375 10.3732 14.7274 11.0833 13.8542 11.0833C12.981 11.0833 12.2708 10.3732 12.2708 9.5C12.2708 8.62679 12.981 7.91667 13.8542 7.91667ZM9.5 6.33333C11.2464 6.33333 12.6667 4.91308 12.6667 3.16667C12.6667 1.42025 11.2464 0 9.5 0C7.75358 0 6.33333 1.42025 6.33333 3.16667C6.33333 4.91308 7.75358 6.33333 9.5 6.33333ZM9.5 1.58333C10.3732 1.58333 11.0833 2.29346 11.0833 3.16667C11.0833 4.03988 10.3732 4.75 9.5 4.75C8.62679 4.75 7.91667 4.03988 7.91667 3.16667C7.91667 2.29346 8.62679 1.58333 9.5 1.58333ZM5.14583 12.6667C6.89225 12.6667 8.3125 11.2464 8.3125 9.5C8.3125 7.75358 6.89225 6.33333 5.14583 6.33333C3.39942 6.33333 1.97917 7.75358 1.97917 9.5C1.97917 11.2464 3.39942 12.6667 5.14583 12.6667ZM5.14583 7.91667C6.01904 7.91667 6.72917 8.62679 6.72917 9.5C6.72917 10.3732 6.01904 11.0833 5.14583 11.0833C4.27263 11.0833 3.5625 10.3732 3.5625 9.5C3.5625 8.62679 4.27263 7.91667 5.14583 7.91667ZM19 16.625V19H17.4167V16.625C17.4167 15.8824 16.9132 15.2657 16.2205 15.0939L13.8589 17.8307L11.4657 15.1018C10.7857 15.2815 10.2917 15.8951 10.2917 16.6242V18.9992H8.70833V16.6242C8.70833 15.8816 8.20483 15.2649 7.51292 15.0931L5.15058 17.8299L2.75738 15.101C2.07733 15.2808 1.58333 15.8943 1.58333 16.6234V18.9984H0V16.6234C0 14.9229 1.33475 13.5367 3.03921 13.467L3.41763 13.4512L5.14188 15.4169L6.83683 13.4528L7.21208 13.4631C8.13517 13.4884 8.94267 13.904 9.50238 14.5413C10.0542 13.9151 10.8458 13.5027 11.7475 13.4663L12.126 13.4504L13.8502 15.4161L15.5452 13.452L15.9204 13.4623C17.6478 13.5098 19.0008 14.8976 19.0008 16.6218L19 16.625Z" fill="white"/>
</g>
<defs>
<clipPath id="clip0_8952_455">
<rect width="19" height="19" fill="white"/>
</clipPath>
</defs>
</svg>
