<svg width="19" height="19" viewBox="0 0 19 19" fill="none" xmlns="http://www.w3.org/2000/svg">
<g clip-path="url(#clip0_8952_453)">
<path d="M16.625 8.70833H12.6667C11.3573 8.70833 10.2917 9.77392 10.2917 11.0833V16.625C10.2917 17.9344 11.3573 19 12.6667 19H16.625C17.9344 19 19 17.9344 19 16.625V11.0833C19 9.77392 17.9344 8.70833 16.625 8.70833ZM17.4167 16.625C17.4167 17.0612 17.062 17.4167 16.625 17.4167H12.6667C12.2297 17.4167 11.875 17.0612 11.875 16.625V11.0833C11.875 10.6471 12.2297 10.2917 12.6667 10.2917H16.625C17.062 10.2917 17.4167 10.6471 17.4167 11.0833V16.625ZM16.625 12.6643C16.625 13.1013 16.2711 13.456 15.8333 13.456H13.4583C13.0205 13.456 12.6667 13.1013 12.6667 12.6643C12.6667 12.2273 13.0205 11.8726 13.4583 11.8726H15.8333C16.2711 11.8726 16.625 12.2273 16.625 12.6643ZM16.625 15.0417C16.625 15.4787 16.2711 15.8333 15.8333 15.8333H13.4583C13.0205 15.8333 12.6667 15.4787 12.6667 15.0417C12.6667 14.6047 13.0205 14.25 13.4583 14.25H15.8333C16.2711 14.25 16.625 14.6047 16.625 15.0417ZM7.125 9.5C9.74463 9.5 11.875 7.36963 11.875 4.75C11.875 2.13038 9.74463 0 7.125 0C4.50538 0 2.375 2.13038 2.375 4.75C2.375 7.36963 4.50538 9.5 7.125 9.5ZM7.125 1.58333C8.87142 1.58333 10.2917 3.00358 10.2917 4.75C10.2917 6.49642 8.87142 7.91667 7.125 7.91667C5.37858 7.91667 3.95833 6.49642 3.95833 4.75C3.95833 3.00358 5.37858 1.58333 7.125 1.58333ZM8.70833 11.875C8.70833 12.312 8.35446 12.6667 7.91667 12.6667H7.125C4.06996 12.6667 1.58333 15.1525 1.58333 18.2083C1.58333 18.6453 1.22946 19 0.791667 19C0.353875 19 0 18.6453 0 18.2083C0 14.2801 3.19596 11.0833 7.125 11.0833H7.91667C8.35446 11.0833 8.70833 11.438 8.70833 11.875Z" fill="#062745"/>
</g>
<defs>
<clipPath id="clip0_8952_453">
<rect width="19" height="19" fill="white"/>
</clipPath>
</defs>
</svg>
