<svg width="17" height="17" viewBox="0 0 17 17" fill="none" xmlns="http://www.w3.org/2000/svg">
  <path d="M9.5625 8.5C9.5625 10.0626 10.8333 11.3333 12.3958 11.3333C13.9584 11.3333 15.2292 10.0626 15.2292 8.5C15.2292 6.93742 13.9584 5.66667 12.3958 5.66667C10.8333 5.66667 9.5625 6.93742 9.5625 8.5ZM12.3958 7.08333C13.1771 7.08333 13.8125 7.71871 13.8125 8.5C13.8125 9.28129 13.1771 9.91667 12.3958 9.91667C11.6145 9.91667 10.9792 9.28129 10.9792 8.5C10.9792 7.71871 11.6145 7.08333 12.3958 7.08333ZM8.5 5.66667C10.0626 5.66667 11.3333 4.39592 11.3333 2.83333C11.3333 1.27075 10.0626 0 8.5 0C6.93742 0 5.66667 1.27075 5.66667 2.83333C5.66667 4.39592 6.93742 5.66667 8.5 5.66667ZM8.5 1.41667C9.28129 1.41667 9.91667 2.05204 9.91667 2.83333C9.91667 3.61462 9.28129 4.25 8.5 4.25C7.71871 4.25 7.08333 3.61462 7.08333 2.83333C7.08333 2.05204 7.71871 1.41667 8.5 1.41667ZM4.60417 11.3333C6.16675 11.3333 7.4375 10.0626 7.4375 8.5C7.4375 6.93742 6.16675 5.66667 4.60417 5.66667C3.04158 5.66667 1.77083 6.93742 1.77083 8.5C1.77083 10.0626 3.04158 11.3333 4.60417 11.3333ZM4.60417 7.08333C5.38546 7.08333 6.02083 7.71871 6.02083 8.5C6.02083 9.28129 5.38546 9.91667 4.60417 9.91667C3.82287 9.91667 3.1875 9.28129 3.1875 8.5C3.1875 7.71871 3.82287 7.08333 4.60417 7.08333ZM17 14.875V17H15.5833V14.875C15.5833 14.2106 15.1328 13.6588 14.513 13.5051L12.4001 15.9538L10.2588 13.5122C9.65033 13.673 9.20833 14.2219 9.20833 14.8743V16.9993H7.79167V14.8743C7.79167 14.2099 7.34117 13.6581 6.72208 13.5044L4.60842 15.9531L2.46712 13.5115C1.85867 13.6722 1.41667 14.2212 1.41667 14.8736V16.9986H0V14.8736C0 13.3521 1.19425 12.1118 2.71929 12.0495L3.05787 12.0353L4.60062 13.7941L6.11717 12.0367L6.45292 12.0459C7.27883 12.0686 8.00133 12.4405 8.50212 13.0107C8.99583 12.4504 9.70417 12.0813 10.511 12.0487L10.8495 12.0346L12.3923 13.7934L13.9088 12.036L14.2446 12.0452C15.7902 12.0877 17.0007 13.3294 17.0007 14.8722L17 14.875Z" fill="white"></path>
</svg>
