<svg width="18" height="19" viewBox="0 0 18 19" fill="none" xmlns="http://www.w3.org/2000/svg">
  <path d="M5.44444 14.3701H12.5556M8.12684 1.45116L2.09812 6.23824C1.69513 6.55824 1.49364 6.71824 1.34847 6.91861C1.21988 7.0961 1.12409 7.29605 1.0658 7.50865C1 7.74865 1 8.00926 1 8.53052V15.0961C1 16.1125 1 16.6207 1.19377 17.009C1.3642 17.3505 1.63617 17.6282 1.97068 17.8022C2.35097 18 2.84879 18 3.84444 18H14.1556C15.1512 18 15.6491 18 16.0293 17.8022C16.3638 17.6282 16.6358 17.3505 16.8062 17.009C17 16.6207 17 16.1125 17 15.0961V8.53052C17 8.00926 17 7.74865 16.9342 7.50865C16.8759 7.29605 16.7801 7.0961 16.6516 6.91861C16.5064 6.71824 16.3049 6.55824 15.9019 6.23825L9.87316 1.45116C9.56089 1.20319 9.40471 1.0792 9.23227 1.03154C9.08018 0.989487 8.91982 0.989487 8.76773 1.03154C8.59529 1.0792 8.43911 1.20319 8.12684 1.45116Z" stroke="white" stroke-width="2" stroke-linecap="round" stroke-linejoin="round" ></path>
</svg>

