<svg id="Layer_1" viewBox="0 0 24 24" xmlns="http://www.w3.org/2000/svg" data-name="Layer 1"><path d="m23.799 16.251c-.981 1.695-2.807 2.749-4.764 2.749h-5.535v2h3c.828 0 1.5.672 1.5 1.5s-.672 1.5-1.5 1.5h-9c-.828 0-1.5-.672-1.5-1.5s.672-1.5 1.5-1.5h3v-2h-5c-3.032 0-5.5-2.468-5.5-5.5v-8c0-3.033 2.468-5.5 5.5-5.5h4.5c.828 0 1.5.671 1.5 1.5s-.672 1.5-1.5 1.5h-4.5c-1.379 0-2.5 1.122-2.5 2.5v8c0 1.379 1.121 2.5 2.5 2.5h13.535c.89 0 1.72-.479 2.166-1.251.415-.717 1.333-.962 2.05-.548.717.415.962 1.333.548 2.05zm-13.799-8.251c0-1.009-.749-1.834-1.72-1.972-.131-.009-.262-.021-.396-.017-1.05.061-1.884.923-1.884 1.988 0 1.105.895 2 2 2s2-.895 2-2zm-4.948 4.941c-.203.512.22 1.059.794 1.059h4.309c.574 0 .997-.547.794-1.059-.449-1.135-1.6-1.941-2.948-1.941s-2.499.807-2.948 1.941zm17.311-11.683-3.392-1.124c-.306-.102-.636-.102-.943 0l-3.394 1.124c-.978.326-1.635 1.237-1.635 2.266v3.477c0 3.522 3.56 5.576 4.648 6.12 0 0 .525.25.853.25.501 0 .745-.184.745-.184 1.115-.449 4.754-2.218 4.754-6.187v-3.477c0-1.029-.658-1.94-1.637-2.265zm-3.363 5.242v3h.5c.276 0 .5.224.5.5s-.224.5-.5.5h-1c-.276 0-.5-.224-.5-.5v-3.5c-1.214 0-2.178-1.086-1.972-2.338.162-.983 1.087-1.662 2.084-1.662h.776c.997 0 1.922.679 2.084 1.662.206 1.252-.758 2.338-1.972 2.338zm1-2.014c0 .551-.449 1-1 1h-1c-.551 0-1-.449-1-1s.449-1 1-1h1c.551 0 1 .449 1 1z"/></svg>